<svg width="128" height="128" viewBox="0 0 128 128" fill="none" xmlns="http://www.w3.org/2000/svg">
<path d="M107.774 0V17.0482C103.962 15.4489 99.8841 14.6509 95.4509 14.6509C86.4901 14.6509 78.7726 17.8462 72.2986 24.2367C68.3047 28.3212 65.4664 32.9366 63.9595 38.0862C62.4491 32.94 59.6986 28.3212 55.6203 24.2367C49.2341 17.8462 41.5167 14.6509 32.5592 14.6509C27.5888 14.6509 22.98 15.6281 18.807 17.6669V0C17.3879 0.889265 16.0566 2.04227 14.8132 3.46238C14.0157 4.35165 13.394 5.24091 12.7723 6.0355C11.6201 7.72612 10.7314 9.41336 9.93401 11.1851C8.0756 15.6281 7.09572 20.5951 7.09572 26.0964C7.09572 26.3669 7.09572 26.7219 7.09572 26.9856C7.00787 27.0803 6.82878 27.2561 6.74093 27.432C2.21995 33.1124 0 39.6822 0 47.2223C0 54.3263 2.04086 61.8698 6.21044 69.8563C18.1853 89.0313 34.421 106.259 54.8229 121.434C57.2151 123.118 59.5229 124.896 61.9152 126.58C62.5369 127.03 63.2465 127.469 63.9561 128C64.7501 127.469 65.4631 127.03 66.0814 126.58C67.4161 125.603 68.6528 124.713 69.805 124.003C91.8051 108.115 109.102 90.0964 121.786 69.8529C125.956 61.8664 128 54.3195 128 47.2189C128 38.7895 125.165 31.5097 119.482 25.3863C119.394 20.1488 118.509 15.3542 116.647 11.1851C115.843 9.40998 114.964 7.72274 113.805 6.0355C113.183 5.23753 112.562 4.34489 111.849 3.459C110.528 2.04227 109.196 0.889265 107.774 0ZM26.4366 61.0752C25.6358 58.9451 25.281 56.9028 25.3723 54.9484L55.4412 72.3483C53.7585 73.4134 51.8021 74.1234 49.5889 74.4818C44.8855 75.2764 40.2733 74.3872 35.7489 71.8174C31.2245 69.2477 28.1193 65.6027 26.4366 61.0752ZM102.101 54.9484C102.185 56.8994 101.834 58.9417 101.036 61.0752C99.3536 65.6027 96.2484 69.2477 91.724 71.8174C87.1996 74.3872 82.5908 75.2764 77.8839 74.4818C75.664 74.1268 73.7144 73.4167 72.0317 72.3483L102.101 54.9484Z" fill="#E20B8D"/>
</svg>
